<svg xmlns="http://www.w3.org/2000/svg"  viewBox="0 0 64 64" width="64px" height="64px"><path d="M 13 6 C 9.1482075 6 6 9.1482075 6 13 L 6 49 L 6 51 C 6 51.240896 6.0131288 51.478126 6.0371094 51.712891 C 6.0611079 51.947534 6.0957747 52.178894 6.1425781 52.40625 C 6.1427064 52.406875 6.1424497 52.407579 6.1425781 52.408203 C 6.1893142 52.634917 6.2481785 52.857894 6.3164062 53.076172 C 6.3165929 53.07677 6.3162195 53.077527 6.3164062 53.078125 C 6.4529731 53.515422 6.632025 53.933853 6.8476562 54.330078 C 6.9558905 54.52896 7.0728588 54.721463 7.1992188 54.908203 C 7.4512871 55.280719 7.7376354 55.62826 8.0546875 55.945312 C 8.3717396 56.262365 8.7192806 56.548713 9.0917969 56.800781 C 9.278055 56.926815 9.4696295 57.04434 9.6679688 57.152344 C 9.6684578 57.15261 9.6694327 57.152077 9.6699219 57.152344 C 10.066147 57.367975 10.484578 57.547027 10.921875 57.683594 C 10.922461 57.683777 10.923242 57.683411 10.923828 57.683594 C 11.142187 57.751722 11.364975 57.810778 11.591797 57.857422 C 11.592418 57.85755 11.593129 57.857294 11.59375 57.857422 C 12.048055 57.950714 12.51887 58 13 58 L 51 58 C 51.722856 58 52.420986 57.88919 53.078125 57.683594 C 53.515422 57.547027 53.933853 57.367975 54.330078 57.152344 C 54.528411 57.044288 54.721933 56.926868 54.908203 56.800781 C 55.280719 56.548713 55.62826 56.262365 55.945312 55.945312 C 56.262365 55.62826 56.548713 55.280719 56.800781 54.908203 C 56.927141 54.721463 57.044109 54.52896 57.152344 54.330078 C 57.367975 53.933853 57.547027 53.515422 57.683594 53.078125 C 57.683781 53.077527 57.683407 53.07677 57.683594 53.076172 C 57.751821 52.857894 57.810686 52.634917 57.857422 52.408203 C 57.85755 52.407579 57.857294 52.406875 57.857422 52.40625 C 57.904225 52.178894 57.938892 51.947534 57.962891 51.712891 C 57.986871 51.478126 58 51.240896 58 51 L 58 49 L 58 13 C 58 9.1482075 54.851793 6 51 6 L 13 6 z M 13 8 L 51 8 C 53.768207 8 56 10.231793 56 13 L 56 43.357422 C 54.348082 41.312642 51.824143 40 49 40 L 33 40 L 33 37 C 33 36.25 33.245244 35.814774 33.601562 35.498047 C 33.781725 35.337903 34.0664 35.330907 34.308594 35.246094 C 34.949243 36.634818 36.683228 38 40 38 C 43.174242 38 45.581004 35.988355 47.074219 33.816406 C 47.820826 32.730432 48.358716 31.591 48.6875 30.552734 C 49.016284 29.514469 49.18606 28.619239 48.970703 27.757812 A 1.0001 1.0001 0 0 0 47.292969 27.292969 C 46.18439 28.401547 45.200983 28.782393 44.046875 28.947266 C 42.892767 29.112138 41.555556 29 40 29 C 37.527778 29 35.905188 29.88807 35.025391 31.007812 C 34.427394 31.768899 34.22186 32.505926 34.117188 33.150391 C 33.509129 33.27725 32.929009 33.506069 32.425781 33.912109 C 32.126792 33.28374 31.635621 32.701764 30.933594 32.214844 C 30.752378 26.277596 27.776768 23.086962 24.294922 22.015625 C 23.397177 21.739396 22.480533 21.581913 21.576172 21.517578 C 18.863089 21.324572 16.25398 21.977502 14.552734 22.828125 A 1.0001 1.0001 0 0 0 14.552734 24.617188 C 17.294344 25.987991 18.409323 28.036217 20.269531 30.029297 C 22.078181 31.967135 24.696345 33.5989 29.617188 33.689453 C 30.295772 34.060376 30.623585 34.507475 30.800781 35.039062 C 30.987536 35.599326 31 36.222656 31 36.722656 L 31 37 L 31 40 L 15 40 C 12.175857 40 9.6519179 41.312642 8 43.357422 L 8 13 C 8 10.231793 10.231793 8 13 8 z M 21.431641 23.535156 C 22.206967 23.580196 22.977823 23.703964 23.705078 23.927734 C 26.153714 24.681161 28.145131 26.493201 28.728516 30.421875 C 28.359381 29.956484 27.959536 29.502505 27.541016 29.083984 C 26.572089 28.115057 25.566317 27.328095 24.658203 27.025391 A 0.50005 0.50005 0 0 0 24.460938 26.998047 A 0.50005 0.50005 0 0 0 24.341797 27.974609 C 24.933683 28.171905 25.927911 28.884943 26.833984 29.791016 C 27.389933 30.346965 27.912404 30.974914 28.349609 31.591797 C 24.83677 31.305979 23.149024 30.183943 21.730469 28.664062 C 20.470462 27.314055 19.34085 25.561964 17.416016 24.080078 C 18.649644 23.750424 19.933561 23.448131 21.431641 23.535156 z M 46.669922 30.171875 C 46.397242 30.960852 46.002587 31.844604 45.425781 32.683594 C 44.168996 34.511645 42.325758 36 40 36 C 36.939576 36 36.216449 34.854476 36.058594 34.279297 C 36.700326 33.967716 38.502718 33.240149 40.314453 33.964844 A 0.50050738 0.50050738 0 1 0 40.685547 33.035156 C 39.993846 32.758476 39.307939 32.654019 38.667969 32.652344 C 37.649762 32.649692 36.768922 32.90518 36.146484 33.148438 C 36.234024 32.853208 36.371458 32.532562 36.599609 32.242188 C 37.094812 31.611927 37.972222 31 40 31 C 41.444444 31 42.857233 31.137866 44.328125 30.927734 C 45.105374 30.816699 45.892553 30.564835 46.669922 30.171875 z M 15 42 L 31 42 L 31 44 A 1.0001 1.0001 0 1 0 33 44 L 33 42 L 49 42 C 52.877484 42 56 45.122516 56 49 L 56 51 C 56 51.173013 55.991631 51.34331 55.974609 51.511719 C 55.974545 51.512359 55.974674 51.513032 55.974609 51.513672 C 55.957524 51.682055 55.931712 51.848771 55.898438 52.011719 C 55.76546 52.662915 55.506955 53.267462 55.148438 53.798828 C 55.148156 53.799245 55.148719 53.800364 55.148438 53.800781 C 54.789986 54.331703 54.331703 54.789986 53.800781 55.148438 C 53.800364 55.148719 53.799245 55.148156 53.798828 55.148438 C 53.267462 55.506955 52.662915 55.76546 52.011719 55.898438 C 51.685193 55.965116 51.346682 56 51 56 L 13 56 C 12.827303 56 12.656329 55.991466 12.488281 55.974609 C 12.487636 55.974544 12.486973 55.974675 12.486328 55.974609 C 12.318306 55.957691 12.152794 55.931397 11.990234 55.898438 C 11.989616 55.898311 11.988899 55.898564 11.988281 55.898438 C 11.337085 55.76546 10.732538 55.506955 10.201172 55.148438 C 10.200755 55.148156 10.199636 55.148719 10.199219 55.148438 C 9.6682973 54.789986 9.2100136 54.331703 8.8515625 53.800781 C 8.8512442 53.800309 8.8518806 53.7993 8.8515625 53.798828 C 8.4930449 53.267462 8.2345402 52.662915 8.1015625 52.011719 C 8.1014355 52.011094 8.1016893 52.010391 8.1015625 52.009766 C 8.0684737 51.847414 8.0424108 51.681416 8.0253906 51.513672 C 8.0253262 51.513032 8.0254548 51.512359 8.0253906 51.511719 C 8.0083687 51.34331 8 51.173013 8 51 L 8 49 C 8 45.122516 11.122516 42 15 42 z M 14.5 48 C 13.947 48 13.5 48.447 13.5 49 L 13.5 51 C 13.5 51.553 13.947 52 14.5 52 C 15.053 52 15.5 51.553 15.5 51 L 15.5 49 C 15.5 48.447 15.053 48 14.5 48 z M 19.5 48 C 18.947 48 18.5 48.447 18.5 49 L 18.5 51 C 18.5 51.553 18.947 52 19.5 52 C 20.053 52 20.5 51.553 20.5 51 L 20.5 49 C 20.5 48.447 20.053 48 19.5 48 z M 24.5 48 C 23.947 48 23.5 48.447 23.5 49 L 23.5 51 C 23.5 51.553 23.947 52 24.5 52 C 25.053 52 25.5 51.553 25.5 51 L 25.5 49 C 25.5 48.447 25.053 48 24.5 48 z M 29.5 48 C 28.947 48 28.5 48.447 28.5 49 L 28.5 51 C 28.5 51.553 28.947 52 29.5 52 C 30.053 52 30.5 51.553 30.5 51 L 30.5 49 C 30.5 48.447 30.053 48 29.5 48 z M 34.5 48 C 33.947 48 33.5 48.447 33.5 49 L 33.5 51 C 33.5 51.553 33.947 52 34.5 52 C 35.053 52 35.5 51.553 35.5 51 L 35.5 49 C 35.5 48.447 35.053 48 34.5 48 z M 39.5 48 C 38.947 48 38.5 48.447 38.5 49 L 38.5 51 C 38.5 51.553 38.947 52 39.5 52 C 40.053 52 40.5 51.553 40.5 51 L 40.5 49 C 40.5 48.447 40.053 48 39.5 48 z M 44.5 48 C 43.947 48 43.5 48.447 43.5 49 L 43.5 51 C 43.5 51.553 43.947 52 44.5 52 C 45.053 52 45.5 51.553 45.5 51 L 45.5 49 C 45.5 48.447 45.053 48 44.5 48 z M 49.5 48 C 48.947 48 48.5 48.447 48.5 49 L 48.5 51 C 48.5 51.553 48.947 52 49.5 52 C 50.053 52 50.5 51.553 50.5 51 L 50.5 49 C 50.5 48.447 50.053 48 49.5 48 z"/></svg>